<svg width="120" height="150" viewBox="0 0 120 150" fill="none" xmlns="http://www.w3.org/2000/svg">
<path d="M25.3807 114.742H91.4584V116.538C91.4584 118.238 90.1795 119.657 88.4871 119.809C82.4142 120.354 68.3183 121.515 58.4195 121.515C48.5208 121.515 34.4249 120.354 28.3519 119.809C26.6596 119.657 25.3807 118.238 25.3807 116.538V114.742Z" fill="#2B2D42"/>
<rect x="24.4017" y="114.246" width="4.12985" height="24.7791" transform="rotate(5 24.4017 114.246)" fill="#2B2D42"/>
<rect x="88.65" y="115.102" width="4.12985" height="24.7791" transform="rotate(-5 88.65 115.102)" fill="#2B2D42"/>
<path d="M24.9959 23.5923C25.3264 20.5684 27.1739 17.9433 29.9993 16.816C35.7636 14.5161 46.3941 11 57.5109 11C68.7369 11 80.4587 14.5855 86.8183 16.8834C89.8316 17.9722 91.859 20.7008 92.2056 23.886C93.1538 32.5999 94.9274 50.6045 94.9274 63.3665C94.9274 80.7849 91.6235 107.969 91.6235 107.969H25.5459C25.5459 107.969 22.242 80.7849 22.242 63.3665C22.242 50.4593 24.0562 32.1897 24.9959 23.5923Z" fill="#E11B33"/>
<path d="M92.3004 83.5681C92.4363 82.2063 93.6504 81.2126 95.0121 81.3484L100.108 81.8568C101.47 81.9927 102.463 83.2068 102.327 84.5685L99.9986 107.91L89.9716 106.91L92.3004 83.5681Z" fill="#2B2D42"/>
<path d="M92.2486 72.44C92.3845 71.0782 93.5985 70.0844 94.9603 70.2203L102.357 70.9583C103.719 71.0942 104.713 72.3082 104.577 73.67L103.839 81.067C103.703 82.4288 102.489 83.4225 101.127 83.2867L93.7303 82.5487C92.3685 82.4128 91.3747 81.1987 91.5106 79.837L92.2486 72.44Z" fill="#D90429"/>
<path d="M92.3004 83.5681C92.4363 82.2063 93.6504 81.2126 95.0121 81.3484L100.108 81.8568C101.47 81.9927 102.463 83.2068 102.327 84.5685L99.9986 107.91L89.9716 106.91L92.3004 83.5681Z" fill="#2B2D42"/>
<path d="M14.6527 84.461C14.5168 83.0992 15.5105 81.8851 16.8723 81.7492L21.968 81.2406C23.3297 81.1047 24.5438 82.0984 24.6797 83.4601L27.0095 106.802L16.9825 107.803L14.6527 84.461Z" fill="#2B2D42"/>
<path d="M12.2461 73.6705C12.1102 72.3087 13.1039 71.0946 14.4657 70.9587L21.8626 70.2204C23.2244 70.0845 24.4385 71.0782 24.5744 72.44L25.3127 79.8369C25.4486 81.1987 24.4549 82.4128 23.0932 82.5487L15.6962 83.287C14.3344 83.4229 13.1203 82.4292 12.9844 81.0675L12.2461 73.6705Z" fill="#BB0827"/>
<path d="M92.2486 72.44C92.3845 71.0782 93.5985 70.0844 94.9603 70.2203L102.357 70.9583C103.719 71.0942 104.713 72.3082 104.577 73.67L103.839 81.067C103.703 82.4288 102.489 83.4225 101.127 83.2867L93.7303 82.5487C92.3685 82.4128 91.3747 81.1987 91.5106 79.837L92.2486 72.44Z" fill="#BB0827"/>
<path d="M17.2862 106.317C17.2862 101.755 20.9842 98.0573 25.5459 98.0573H91.6235C96.1852 98.0573 99.8832 101.755 99.8832 106.317V116.229C99.8832 117.141 99.1436 117.881 98.2313 117.881H18.9381C18.0258 117.881 17.2862 117.141 17.2862 116.229V106.317Z" fill="#BB0827"/>
<rect x="80.7947" y="19.9205" width="0.660776" height="27.5874" transform="rotate(15.4357 80.7947 19.9205)" fill="#BB0827"/>
<rect x="42.6349" y="59.7322" width="0.660776" height="27.5874" transform="rotate(15.4357 42.6349 59.7322)" fill="#BB0827"/>
<rect x="35.2924" y="20.0915" width="0.660776" height="27.5874" transform="rotate(-15 35.2924 20.0915)" fill="#BB0827"/>
<rect x="35.2924" y="20.0915" width="0.660776" height="27.5874" transform="rotate(-15 35.2924 20.0915)" fill="#BB0827"/>
<rect x="73.6174" y="60.0685" width="0.660776" height="27.5874" transform="rotate(-15 73.6174 60.0685)" fill="#BB0827"/>
<path d="M43.8829 47.012H72.296C73.0258 47.012 73.6172 47.6044 73.6172 48.3342V57.9153C73.6171 58.645 73.0257 59.2365 72.296 59.2366H43.8829C43.1531 59.2366 42.5607 58.6451 42.5606 57.9153V48.3342C42.5606 47.6044 43.153 47.012 43.8829 47.012Z" stroke="#BB0827" stroke-width="0.660776"/>
<circle cx="42.8087" cy="46.5993" r="0.908567" fill="#2B2D42"/>
<circle cx="73.5348" cy="46.5993" r="0.908567" fill="#2B2D42"/>
<circle cx="42.8087" cy="59.6497" r="0.908567" fill="#2B2D42"/>
<circle cx="73.5348" cy="59.6497" r="0.908567" fill="#2B2D42"/>
<path d="M95.0001 47.9727C95.0406 47.8578 95.0247 47.6808 94.9524 47.4414C94.8893 47.1821 94.8445 46.8826 94.8181 46.543C94.8064 46.198 94.855 45.814 94.9639 45.3909C95.0729 44.9677 95.3361 44.5122 95.7537 44.0243C96.1567 43.5418 96.5885 43.1817 97.0492 42.944C97.5098 42.7062 97.9784 42.557 98.455 42.4964C98.9315 42.4357 99.4006 42.4444 99.8621 42.5225C100.338 42.595 100.786 42.7031 101.205 42.8468C101.49 42.9407 101.76 43.1313 102.017 43.4186C102.268 43.6913 102.506 44.0187 102.731 44.4009C102.956 44.783 103.168 45.1952 103.366 45.6375C103.572 46.0597 103.762 46.4801 103.934 46.8986C104.101 47.3024 104.249 47.6798 104.38 48.0306C104.519 48.3614 104.652 48.6283 104.777 48.8312C104.955 49.1311 105.161 49.3708 105.394 49.5504C105.621 49.7153 105.853 49.8456 106.088 49.9412C106.318 50.0222 106.536 50.0739 106.744 50.0964C106.952 50.119 107.13 50.1277 107.278 50.1227C107.382 50.1339 107.474 50.1333 107.552 50.1207C107.72 50.1249 107.822 50.0869 107.859 50.0067C107.847 50.2439 107.832 50.4492 107.813 50.6225C107.795 50.7959 107.782 50.9418 107.776 51.0605C107.761 51.1991 107.746 51.3132 107.729 51.4026C107.718 51.5066 107.696 51.606 107.665 51.7008C107.648 51.7902 107.62 51.8923 107.579 52.0072C107.539 52.122 107.501 52.2442 107.466 52.3737C107.249 52.3712 107.033 52.3514 106.82 52.3143C106.621 52.2717 106.44 52.231 106.276 52.1922C106.077 52.1496 105.893 52.1016 105.723 52.0482C105.553 51.9948 105.386 51.924 105.22 51.8359C105.074 51.757 104.918 51.6735 104.752 51.5854C104.601 51.4919 104.459 51.3783 104.326 51.2446C104.309 51.4673 104.198 51.8165 103.992 52.2922C103.801 52.7626 103.496 53.2417 103.079 53.7296C102.656 54.2029 102.115 54.6284 101.457 55.0061C100.813 55.3784 100.023 55.5804 99.0869 55.6124C98.678 55.6312 98.272 55.5908 97.8689 55.491C97.4604 55.3766 97.0795 55.2021 96.7261 54.9675C96.3873 54.7273 96.0907 54.4217 95.8363 54.0504C95.591 53.6591 95.4245 53.1886 95.3367 52.6389C95.2489 52.0893 95.2714 51.5902 95.4041 51.1416C95.5368 50.693 95.7452 50.2911 96.0292 49.936C96.3131 49.581 96.6599 49.2608 97.0696 48.9754C97.4793 48.6901 97.9172 48.4358 98.3833 48.2127C98.7579 48.0569 99.1461 47.9375 99.5479 47.8548C99.8912 47.7937 100.268 47.7784 100.679 47.8088C101.084 47.8246 101.468 47.9399 101.83 48.1545C101.528 47.3852 101.27 46.7821 101.058 46.3452C100.855 45.8883 100.693 45.5411 100.571 45.3034C100.404 45.0328 100.277 44.8472 100.19 44.7465C100.078 44.6714 99.9546 44.5843 99.818 44.4853C99.696 44.3809 99.5575 44.2993 99.4026 44.2404C99.2422 44.167 99.0607 44.1263 98.8581 44.1184C98.6555 44.1105 98.44 44.1573 98.2116 44.2588C97.9685 44.3658 97.7956 44.5049 97.6929 44.6762C97.5902 44.8474 97.5248 45.0298 97.4969 45.2231C97.4781 45.3965 97.494 45.5736 97.5446 45.7544C97.5952 45.9353 97.6595 46.086 97.7376 46.2067C97.7995 46.2836 97.8786 46.3623 97.9751 46.4429C98.0662 46.5089 98.1819 46.574 98.3223 46.6383C98.4626 46.7026 98.6341 46.7387 98.8366 46.7466C98.5167 46.9154 98.2306 47.0633 97.9784 47.1903C97.7207 47.3027 97.5023 47.4088 97.3231 47.5087C97.1147 47.6194 96.9328 47.712 96.7775 47.7863C96.6221 47.8607 96.4429 47.9606 96.24 48.0859C96.0608 48.1858 95.8405 48.3092 95.5791 48.4563C95.3176 48.6034 95.0178 48.7813 94.6795 48.9902C94.7292 48.8553 94.7742 48.7304 94.8147 48.6156C94.8498 48.4861 94.883 48.3739 94.9143 48.2791C94.9402 48.1697 94.9688 48.0675 95.0001 47.9727ZM99.2587 49.3597C99.0011 49.4721 98.7624 49.6357 98.5427 49.8504C98.3176 50.0505 98.1408 50.2909 98.0122 50.5716C97.8782 50.8377 97.7869 51.1294 97.7386 51.4469C97.6993 51.7443 97.7368 52.0465 97.8509 52.3534C97.9649 52.6604 98.1385 52.9037 98.3716 53.0832C98.6139 53.2427 98.8864 53.3494 99.1893 53.4032C99.5067 53.4516 99.817 53.4361 100.12 53.3567C100.438 53.2719 100.727 53.1313 100.987 52.9349C101.226 52.7294 101.43 52.4708 101.597 52.1592C101.758 51.833 101.878 51.5057 101.956 51.1774C102.028 50.8345 102.052 50.5179 102.027 50.2276C101.997 49.9227 101.92 49.6934 101.796 49.5397C101.538 49.2031 101.177 49.0378 100.713 49.0437C100.244 49.035 99.7595 49.1403 99.2587 49.3597Z" fill="#242425"/>
<path d="M12 53.573C12.499 53.651 12.9513 53.7212 13.3567 53.7835C13.7622 53.8303 14.1131 53.8693 14.4093 53.9005C14.7524 53.9473 15.0565 53.9863 15.3216 54.0175C15.6491 54.0642 16.1403 54.0097 16.7953 53.8537C17.4503 53.6822 18.1676 53.5262 18.9473 53.3859C19.7427 53.2299 20.5536 53.1442 21.3801 53.1286C22.2066 53.0974 22.9629 53.2455 23.6491 53.573C24.3352 53.9005 24.8966 54.228 25.3333 54.5555C25.7699 54.883 26.113 55.2338 26.3625 55.6081C26.6276 55.9668 26.8148 56.3488 26.9239 56.7543C27.0331 57.1598 27.0955 57.6042 27.1111 58.0876C27.0955 58.805 26.9239 59.4989 26.5964 60.1695C26.4561 60.4502 26.269 60.7465 26.035 61.0584C25.8167 61.3547 25.5438 61.6432 25.2163 61.9239C24.8888 62.2046 24.499 62.4697 24.0467 62.7192C23.6101 62.9687 23.0955 63.187 22.5029 63.3742C23.0799 63.5457 23.5555 63.7484 23.9298 63.9823C24.3196 64.2163 24.6315 64.4346 24.8655 64.6373C25.1462 64.8868 25.3567 65.1285 25.497 65.3625C25.6686 65.6899 25.7855 65.9706 25.8479 66.2046C25.9103 66.4385 25.9493 66.6646 25.9649 66.8829C25.9961 67.0856 26.035 67.2962 26.0818 67.5145C26.1286 67.7328 26.23 67.9823 26.3859 68.263C26.5107 68.4814 26.6588 68.7075 26.8304 68.9414C26.9863 69.1441 27.1656 69.3624 27.3684 69.5964C27.5867 69.8303 27.8518 70.0564 28.1637 70.2747C27.727 70.2903 27.3216 70.2981 26.9473 70.2981C26.5886 70.2981 26.2768 70.2981 26.0116 70.2981C25.6998 70.2981 25.4035 70.2903 25.1228 70.2747C24.8421 70.2591 24.4912 70.2513 24.0701 70.2513C23.7115 70.2513 23.2514 70.2513 22.69 70.2513C22.1442 70.2513 21.4815 70.2591 20.7017 70.2747C21.0448 70.0096 21.3255 69.7445 21.5438 69.4794C21.7622 69.2143 21.9337 68.9726 22.0584 68.7543C22.1988 68.5047 22.3002 68.263 22.3625 68.0291C22.4405 67.6081 22.4483 67.1714 22.3859 66.7192C22.3391 66.3293 22.2144 65.9005 22.0117 65.4326C21.8089 64.9492 21.4815 64.4658 21.0292 63.9823C20.577 64.0603 20.1949 64.1227 19.883 64.1695C19.5867 64.2007 19.3294 64.2319 19.1111 64.263C18.8616 64.2942 18.6588 64.3176 18.5029 64.3332C18.3626 64.3488 18.2066 64.3644 18.0351 64.38C17.8947 64.3956 17.7388 64.419 17.5672 64.4502C17.4113 64.4658 17.2631 64.4892 17.1228 64.5204C17.0916 65.1909 17.0916 65.7757 17.1228 66.2747C17.154 66.7582 17.193 67.1636 17.2397 67.4911C17.3021 67.881 17.3723 68.2162 17.4503 68.4969C17.5282 68.7776 17.6374 69.0506 17.7778 69.3157C17.8869 69.534 18.0273 69.7679 18.1988 70.0174C18.3703 70.2513 18.5653 70.4463 18.7836 70.6022C18.3781 70.6022 17.9883 70.6022 17.614 70.6022C17.2553 70.6022 16.9279 70.5944 16.6316 70.5788C16.2885 70.5788 15.961 70.571 15.6491 70.5554C15.3372 70.5398 14.9863 70.532 14.5965 70.532C14.269 70.532 13.8791 70.532 13.4269 70.532C12.9903 70.532 12.5146 70.5398 12 70.5554C12.4055 70.1344 12.7251 69.7757 12.9591 69.4794C13.193 69.1831 13.3723 68.9336 13.4971 68.7309C13.6374 68.5125 13.7232 68.3254 13.7544 68.1695C13.7856 67.92 13.809 67.4755 13.8246 66.8361C13.8557 66.1812 13.8791 65.4326 13.8947 64.5905C13.9103 63.7484 13.9181 62.8673 13.9181 61.9473C13.9181 61.0272 13.9103 60.1695 13.8947 59.3742C13.8791 58.5633 13.8635 57.8693 13.8479 57.2923C13.8324 56.7153 13.8168 56.3488 13.8012 56.1929C13.7544 55.9122 13.653 55.6315 13.4971 55.3508C13.3723 55.1013 13.193 54.8206 12.9591 54.5087C12.7251 54.1968 12.4055 53.8849 12 53.573ZM20.8421 61.8069C20.998 61.7133 21.1306 61.6198 21.2397 61.5262C21.3489 61.4326 21.4425 61.2845 21.5204 61.0818C21.5984 60.8634 21.6608 60.5594 21.7076 60.1695C21.7699 59.7796 21.8401 59.2494 21.9181 58.5789C21.9805 57.9083 21.9337 57.3547 21.7777 56.918C21.6374 56.4814 21.4425 56.1383 21.193 55.8888C20.959 55.6237 20.6939 55.4444 20.3976 55.3508C20.1169 55.2416 19.8674 55.1871 19.6491 55.1871C19.2125 55.1871 18.7836 55.3196 18.3626 55.5847C17.9415 55.8498 17.6218 56.2085 17.4035 56.6607C17.3255 56.8635 17.2553 57.1987 17.193 57.6666C17.1462 58.072 17.115 58.6334 17.0994 59.3508C17.0838 60.0681 17.1072 61.0116 17.1696 62.1812C17.7622 62.2747 18.2846 62.3137 18.7368 62.2981C19.1891 62.267 19.5711 62.2124 19.883 62.1344C20.2573 62.0564 20.577 61.9473 20.8421 61.8069Z" fill="#242425"/>
<path d="M27.345 80.6016C27.5895 80.9635 27.8552 81.2732 28.1423 81.531C28.3815 81.7458 28.6507 81.9214 28.95 82.058C29.2709 82.1987 29.6062 82.2075 29.9558 82.0842C30.0787 82.3776 30.1819 82.6278 30.2654 82.8349C30.3617 83.0332 30.4407 83.2058 30.5021 83.3524C30.5594 83.5208 30.6165 83.661 30.6734 83.7731C30.7174 83.8939 30.7745 84.0341 30.8447 84.1937C30.9061 84.3404 30.9786 84.5173 31.0621 84.7244C31.1672 84.9357 31.2812 85.188 31.4041 85.4814C31.299 85.2701 31.1443 85.0829 30.94 84.9198C30.7444 84.7696 30.5468 84.6303 30.347 84.5017C30.1169 84.3561 29.8761 84.2365 29.6247 84.1429C29.4685 84.079 29.2606 84.0219 29.0008 83.9716C28.7497 83.9342 28.4614 83.8278 28.1359 83.6525C27.8104 83.4772 27.4432 83.1983 27.0343 82.8159C26.647 82.4377 26.2306 81.891 25.785 81.1757C25.2434 80.3184 24.9162 79.5137 24.8034 78.7618C24.7035 78.0012 24.736 77.3111 24.9009 76.6916C25.0787 76.0634 25.3542 75.5102 25.7276 75.0321C26.1009 74.554 26.49 74.1688 26.8947 73.8766C27.2995 73.5843 27.8153 73.4146 28.4422 73.3674C29.069 73.3203 29.727 73.4027 30.416 73.6147C31.1137 73.8397 31.8059 74.2095 32.4925 74.7243C33.192 75.2304 33.8123 75.884 34.3536 76.6851C34.6679 77.1503 34.8979 77.616 35.0435 78.0822C35.2107 78.5526 35.313 79.0105 35.3504 79.4557C35.3965 79.9139 35.3862 80.3444 35.3194 80.747C35.2656 81.1409 35.1792 81.5005 35.0601 81.8256C34.9281 82.1594 34.7657 82.4762 34.5729 82.7758C34.4102 83.0363 34.202 83.2993 33.9485 83.5647C33.6949 83.8301 33.4043 84.0547 33.0768 84.2383C32.3874 83.2738 31.8311 82.4922 31.4079 81.8936C30.9934 81.3079 30.6726 80.8471 30.4456 80.5111L29.8563 79.6389L29.4111 78.9799C29.2539 78.7473 29.0423 78.448 28.7762 78.082C28.5101 77.716 28.1808 77.2704 27.7883 76.7451C27.3151 77.159 27.0236 77.5911 26.914 78.0416C26.8259 78.4963 26.8113 78.9203 26.8699 79.3135C26.9419 79.7542 27.1002 80.1836 27.345 80.6016ZM29.6553 76.5C29.9088 76.931 30.1208 77.2865 30.2912 77.5666C30.4703 77.8596 30.6146 78.1009 30.7239 78.2906C30.8419 78.4931 30.9402 78.6525 31.0188 78.7688L31.3462 79.2534C31.5644 79.5765 31.9897 80.1642 32.6222 81.0167C33.1645 80.5938 33.5145 80.1786 33.672 79.771C33.8382 79.3764 33.9182 79.0213 33.9119 78.7056C33.8924 78.3424 33.7908 77.997 33.6071 77.6694C33.0267 76.8382 32.4289 76.3294 31.8135 76.1429C31.2069 75.9693 30.4875 76.0883 29.6553 76.5Z" fill="#242425"/>
<path d="M30.1713 84.6766C30.8887 84.739 31.5202 84.7857 32.0661 84.8169C32.6275 84.8325 33.0953 84.8559 33.4696 84.8871C33.9062 84.9183 34.2883 84.9417 34.6158 84.9573C34.9588 84.9729 35.3955 84.9729 35.9257 84.9573C36.3779 84.9573 36.9549 84.9495 37.6567 84.9339C38.374 84.9027 39.2473 84.8559 40.2766 84.7935L40.0894 88.045C39.6372 88.4972 39.2317 88.9183 38.8731 89.3081C38.53 89.698 38.2259 90.0333 37.9608 90.314C37.6645 90.6415 37.3994 90.9378 37.1655 91.2029C36.9315 91.4836 36.6664 91.8189 36.3701 92.2087C36.105 92.5518 35.7853 92.9728 35.4111 93.4719C35.0368 93.9553 34.608 94.5245 34.1245 95.1795C34.9822 95.1327 35.684 95.0859 36.2298 95.0391C36.7756 94.9767 37.2044 94.9222 37.5163 94.8754C37.8906 94.813 38.1635 94.7662 38.335 94.735C38.491 94.6726 38.6703 94.5401 38.8731 94.3374C39.0446 94.1658 39.2551 93.9085 39.5046 93.5654C39.7541 93.2224 40.0348 92.7545 40.3467 92.1619C40.3467 92.6454 40.3467 93.0586 40.3467 93.4017C40.3623 93.7292 40.3701 94.0021 40.3701 94.2204L40.3701 94.852L40.3701 95.39C40.3701 95.5615 40.3701 95.7721 40.3701 96.0216C40.3857 96.2711 40.4013 96.5518 40.4169 96.8637C39.8087 96.7857 39.2551 96.7311 38.7561 96.6999C38.2571 96.6531 37.8282 96.622 37.4695 96.6064C37.0485 96.5908 36.6664 96.5908 36.3234 96.6064C35.9803 96.6375 35.5514 96.6687 35.0368 96.6999C34.6002 96.7311 34.0622 96.7623 33.4228 96.7935C32.7834 96.8247 32.0271 96.8637 31.1538 96.9105L30.6392 94.4309C30.9199 94.3062 31.2551 94.0645 31.645 93.7058C32.0349 93.3471 32.4091 92.9806 32.7678 92.6064C33.1733 92.1697 33.6021 91.6941 34.0544 91.1795C34.491 90.6649 34.9198 90.1502 35.3409 89.6356C35.6996 89.199 36.0738 88.7467 36.4637 88.2789C36.8692 87.8111 37.22 87.3978 37.5163 87.0391C36.6742 87.0703 35.9803 87.1327 35.4345 87.2263C34.8887 87.3042 34.4598 87.3822 34.1479 87.4602C33.7737 87.5538 33.493 87.6629 33.3058 87.7877C33.1343 87.928 32.9238 88.1386 32.6742 88.4193C32.4559 88.6532 32.1908 88.9729 31.8789 89.3783C31.567 89.7682 31.2084 90.275 30.8029 90.8988C30.8029 90.3842 30.7951 89.9241 30.7795 89.5187C30.7639 89.0976 30.7483 88.7467 30.7327 88.466C30.7015 88.1386 30.6781 87.8501 30.6626 87.6005C30.6314 87.351 30.5924 87.0781 30.5456 86.7818C30.5144 86.5167 30.4598 86.2126 30.3819 85.8696C30.3195 85.5109 30.2493 85.1132 30.1713 84.6766Z" fill="#242425"/>
<path d="M49.0473 96.476C49.484 96.476 49.8894 96.4292 50.2637 96.3356C50.5756 96.2577 50.8719 96.1329 51.1526 95.9614C51.4489 95.7742 51.6438 95.5013 51.7374 95.1427C52.0493 95.205 52.3144 95.2596 52.5327 95.3064C52.751 95.3376 52.9382 95.3688 53.0941 95.4C53.2656 95.4467 53.4138 95.4779 53.5385 95.4935C53.6633 95.5247 53.8115 95.5559 53.983 95.5871C54.1389 95.6183 54.3261 95.6573 54.5444 95.7041C54.7783 95.7352 55.0512 95.782 55.3631 95.8444C55.1292 95.8132 54.8875 95.8366 54.638 95.9146C54.404 95.9926 54.1779 96.0783 53.9596 96.1719C53.7101 96.2811 53.4762 96.4136 53.2578 96.5696C53.1175 96.6631 52.9538 96.8035 52.7666 96.9906C52.5951 97.1777 52.3456 97.3571 52.0181 97.5286C51.6906 97.7002 51.254 97.8483 50.7081 97.9731C50.1779 98.0822 49.4918 98.1212 48.6497 98.09C47.636 98.0588 46.7861 97.8795 46.1 97.552C45.4138 97.2089 44.8602 96.7957 44.4392 96.3122C44.0181 95.8132 43.714 95.2752 43.5269 94.6982C43.3398 94.1212 43.2384 93.5832 43.2228 93.0842C43.2072 92.5852 43.3553 92.0627 43.6672 91.5169C43.9791 90.9711 44.4158 90.4721 44.9772 90.0199C45.5542 89.5676 46.2481 89.2012 47.059 88.9205C47.87 88.6242 48.7588 88.476 49.7257 88.476C50.2871 88.476 50.8017 88.5462 51.2696 88.6865C51.753 88.8113 52.1896 88.9828 52.5795 89.2012C52.9849 89.4195 53.3358 89.669 53.6321 89.9497C53.9284 90.2148 54.1779 90.4877 54.3807 90.7684C54.5834 91.0647 54.7549 91.3766 54.8953 91.7041C55.02 91.9848 55.1214 92.3045 55.1994 92.6631C55.2773 93.0218 55.3007 93.3883 55.2695 93.7625C54.0844 93.7937 53.1253 93.8171 52.3924 93.8327C51.675 93.8483 51.1136 93.8561 50.7081 93.8561L49.6555 93.8561L48.8602 93.8561C48.5795 93.8561 48.213 93.8639 47.7608 93.8795C47.3085 93.8951 46.7549 93.9185 46.1 93.9497C46.1779 94.5735 46.3729 95.0569 46.6848 95.4C47.0123 95.7275 47.3553 95.977 47.714 96.1485C48.1195 96.3356 48.5639 96.4448 49.0473 96.476ZM46.9421 92.2655C47.4411 92.2967 47.8544 92.3201 48.1818 92.3356C48.5249 92.3512 48.8056 92.3668 49.0239 92.3824C49.2579 92.398 49.445 92.4058 49.5853 92.4058L50.1701 92.4058C50.56 92.4058 51.2851 92.3824 52.3456 92.3356C52.2988 91.6495 52.1506 91.1271 51.9011 90.7684C51.6672 90.4097 51.4177 90.1446 51.1526 89.9731C50.8407 89.786 50.4976 89.6768 50.1234 89.6456C49.1097 89.6612 48.3534 89.8717 47.8544 90.2772C47.3709 90.6826 47.0668 91.3454 46.9421 92.2655Z" fill="#242425"/>
<path d="M58.0891 86.1823C58.3854 86.1979 58.6505 86.2057 58.8844 86.2057C59.1339 86.1901 59.3445 86.1745 59.516 86.159C59.7187 86.1434 59.8981 86.1278 60.054 86.1122C60.2879 86.081 60.5296 86.042 60.7792 85.9952C60.9975 85.964 61.2236 85.925 61.4575 85.8783C61.707 85.8159 61.9487 85.7457 62.1827 85.6677C62.0891 85.9016 62.0111 86.1044 61.9487 86.2759C61.8864 86.4474 61.8396 86.5956 61.8084 86.7204C61.7616 86.8607 61.7382 86.9777 61.7382 87.0712C61.7226 87.1804 61.7148 87.3129 61.7148 87.4689C61.6992 87.734 61.6992 88.1628 61.7148 88.7554C62.5257 88.0537 63.2041 87.5079 63.7499 87.118C64.3113 86.7281 64.7558 86.4241 65.0832 86.2057C65.4731 85.9562 65.7772 85.7925 65.9955 85.7145C66.5725 85.6209 67.0793 85.7535 67.516 86.1122C67.7031 86.2681 67.8825 86.4786 68.054 86.7437C68.2255 86.9933 68.3737 87.3285 68.4984 87.7496C68.6232 88.1706 68.7168 88.6775 68.7791 89.2701C68.8415 89.847 68.8493 90.541 68.8025 91.3519C68.475 91.3831 68.1787 91.4143 67.9136 91.4455C67.6641 91.4767 67.4536 91.5001 67.2821 91.5157C67.0793 91.5468 66.8922 91.5624 66.7207 91.5624L66.0891 91.6326C65.8708 91.6638 65.5979 91.695 65.2704 91.7262C64.9585 91.7418 64.5764 91.773 64.1242 91.8198C64.7791 91.2895 65.2002 90.8295 65.3873 90.4396C65.5901 90.0342 65.6758 89.6989 65.6446 89.4338C65.6135 89.1375 65.4731 88.8802 65.2236 88.6619C64.9273 88.4903 64.6076 88.4279 64.2645 88.4747C63.9682 88.5059 63.6252 88.6385 63.2353 88.8724C62.8454 89.1063 62.4322 89.543 61.9955 90.1823C62.0267 91.1804 62.0579 92.0069 62.0891 92.6619C62.1359 93.3168 62.1749 93.847 62.2061 94.2525C62.2528 94.7203 62.2918 95.0868 62.323 95.3519C62.3698 95.5858 62.4634 95.8353 62.6037 96.1004C62.7129 96.3188 62.8688 96.5605 63.0716 96.8256C63.2743 97.0907 63.5394 97.3558 63.8669 97.6209C63.1807 97.5897 62.6193 97.5897 62.1827 97.6209C61.9176 97.6365 61.6836 97.6521 61.4809 97.6677C61.2626 97.6989 61.0287 97.7301 60.7792 97.7613C60.5608 97.7924 60.3035 97.8236 60.0072 97.8548C59.7265 97.9016 59.4146 97.9484 59.0716 97.9952C59.1963 97.8236 59.2977 97.6209 59.3757 97.387C59.4536 97.1687 59.516 96.9581 59.5628 96.7554C59.6252 96.5215 59.672 96.2798 59.7031 96.0303C59.7187 95.8119 59.7265 95.4845 59.7265 95.0478C59.7421 94.6112 59.7343 94.1199 59.7031 93.5741C59.6875 93.0127 59.6642 92.4357 59.633 91.8431C59.6018 91.235 59.5628 90.6658 59.516 90.1355C59.4692 89.6053 59.4146 89.1453 59.3523 88.7554C59.3055 88.35 59.2509 88.0693 59.1885 87.9133C59.1106 87.7262 59.017 87.5391 58.9078 87.3519C58.8143 87.1804 58.6973 87.0011 58.5569 86.8139C58.4166 86.6112 58.2607 86.4007 58.0891 86.1823Z" fill="#242425"/>
<path d="M66.6939 88.5264C66.9603 88.4879 67.2317 88.4396 67.5081 88.3814C67.7648 88.3133 67.9992 88.2524 68.2115 88.199C68.4533 88.1357 68.6854 88.0675 68.9075 87.9943C69.1297 87.9211 69.3791 87.8308 69.6556 87.7233C69.8877 87.6304 70.1618 87.5155 70.4779 87.3785C70.8088 87.2367 71.1645 87.0703 71.5449 86.8793C71.3518 87.0907 71.213 87.2924 71.1285 87.4844C71.044 87.6764 70.9842 87.8439 70.9492 87.9868C70.9091 88.1642 70.8938 88.317 70.9032 88.4452C70.9126 88.5735 71.0005 88.8154 71.1669 89.1711C71.3333 89.5267 71.534 89.9368 71.7691 90.4012C72.019 90.8607 72.2835 91.34 72.5629 91.839C72.8422 92.3381 73.1069 92.7927 73.3569 93.2029C73.6218 93.6082 73.8474 93.9444 74.0339 94.2114C74.2351 94.4734 74.3629 94.5873 74.4173 94.553C74.4766 94.5335 74.5166 94.3561 74.5376 94.0208C74.5733 93.6807 74.6019 93.269 74.6233 92.7858C74.6399 92.2878 74.6516 91.7503 74.6586 91.1733C74.6607 90.5816 74.6528 90.0342 74.6349 89.5311C74.6169 89.028 74.5938 88.6088 74.5654 88.2733C74.5469 87.9182 74.5205 87.7134 74.4862 87.6591C74.4222 87.6145 74.3436 87.5501 74.2502 87.4659C74.0928 87.3371 73.7705 87.1313 73.2833 86.8485C73.7226 86.7366 74.1027 86.6443 74.4235 86.5715C74.7394 86.4838 74.9985 86.4231 75.2008 86.3893C75.4328 86.3457 75.6178 86.3094 75.756 86.2803C75.8942 86.2512 76.0867 86.1878 76.3337 86.09C76.541 86.0217 76.8126 85.9241 77.1484 85.7971C77.4941 85.6503 77.9164 85.462 78.4153 85.232C78.1034 85.581 77.8508 85.8858 77.6576 86.1465C77.4742 86.3875 77.3354 86.5892 77.2412 86.7516C77.127 86.9534 77.05 87.1183 77.0101 87.2464C76.9698 87.4731 76.9359 87.9933 76.9084 88.8068C76.8923 89.1569 76.8711 89.5908 76.8446 90.1085C76.8329 90.6213 76.8159 91.2426 76.7936 91.9724C76.7812 92.6825 76.761 93.5183 76.7329 94.4798C76.7048 95.4414 76.6812 96.541 76.662 97.7787L74.5801 98.7108C73.9913 97.8703 73.5056 97.1683 73.1229 96.6048C72.7502 96.0216 72.4486 95.5545 72.218 95.2035C71.9532 94.7982 71.7497 94.4794 71.6075 94.2471C71.4407 93.9901 71.2177 93.612 70.9384 93.113C70.6542 92.5991 70.3675 92.0778 70.0785 91.5491C69.7894 91.0204 69.5198 90.551 69.2698 90.1408C69.0148 89.7158 68.8407 89.4612 68.7473 89.377C68.6636 89.3225 68.5258 89.2529 68.3338 89.1684C68.1763 89.089 67.967 89.0019 67.706 88.9073C67.44 88.7978 67.1027 88.6709 66.6939 88.5264Z" fill="#242425"/>
<path d="M80.5284 88.6954C80.6188 88.6137 80.6893 88.4505 80.7398 88.2056C80.808 87.9476 80.9115 87.663 81.0502 87.3519C81.2044 87.0431 81.4303 86.7287 81.7278 86.4087C82.0253 86.0887 82.4739 85.8139 83.0736 85.5841C83.6579 85.3522 84.2092 85.2416 84.7275 85.2522C85.2457 85.2629 85.7288 85.3553 86.1766 85.5292C86.6244 85.7031 87.0326 85.9344 87.401 86.2231C87.785 86.514 88.127 86.8225 88.4271 87.1487C88.6324 87.3669 88.7792 87.6634 88.8677 88.0383C88.9583 88.3977 89.0115 88.7991 89.0273 89.2423C89.043 89.6856 89.0322 90.1488 88.9951 90.6318C88.9755 91.1015 88.9416 91.5614 88.8934 92.0113C88.8474 92.4458 88.798 92.8483 88.7453 93.2189C88.7103 93.5761 88.6994 93.8739 88.7128 94.1121C88.7263 94.4605 88.7926 94.7692 88.9119 95.0382C89.0334 95.2917 89.1746 95.5166 89.3358 95.7128C89.4991 95.8935 89.6668 96.0434 89.8389 96.1624C90.011 96.2813 90.1632 96.3739 90.2956 96.4399C90.3816 96.4994 90.4622 96.5424 90.5372 96.5688C90.6828 96.6525 90.7908 96.6679 90.8614 96.6149C90.738 96.8179 90.6267 96.9911 90.5276 97.1345C90.4284 97.2779 90.348 97.4004 90.2863 97.5018C90.207 97.6166 90.1387 97.7092 90.0814 97.7799C90.0219 97.8659 89.9558 97.9431 89.8831 98.0115C89.8258 98.0822 89.752 98.1583 89.6616 98.2399C89.5712 98.3216 89.4797 98.411 89.3872 98.5081C89.1975 98.4023 89.0176 98.2823 88.8477 98.1478C88.6933 98.0156 88.5531 97.8933 88.4274 97.7809C88.2729 97.6487 88.1339 97.5187 88.0103 97.3908C87.8867 97.263 87.773 97.1208 87.6693 96.9643C87.5788 96.8254 87.4816 96.6777 87.3779 96.5212C87.2896 96.3669 87.2189 96.1993 87.1659 96.0185C87.0447 96.2061 86.7802 96.4598 86.3724 96.7799C85.98 97.1021 85.484 97.3781 84.8843 97.6079C84.2868 97.8222 83.6087 97.9384 82.85 97.9565C82.1068 97.9769 81.3161 97.7778 80.4778 97.3593C80.1093 97.1809 79.7718 96.9517 79.465 96.6719C79.1605 96.3765 78.9089 96.0415 78.7101 95.6667C78.5269 95.2941 78.4119 94.884 78.3653 94.4363C78.3363 93.9754 78.4143 93.4824 78.5992 92.9574C78.7841 92.4324 79.0419 92.0044 79.3725 91.6734C79.7031 91.3424 80.0778 91.0885 80.4968 90.9118C80.9157 90.7351 81.3732 90.619 81.8694 90.5636C82.3656 90.5081 82.8717 90.4935 83.3878 90.5196C83.7914 90.5612 84.1895 90.6415 84.5822 90.7603C84.913 90.8704 85.2517 91.0367 85.5981 91.2592C85.9466 91.4663 86.2291 91.7506 86.4455 92.1121C86.5464 91.2917 86.6077 90.6388 86.6295 90.1536C86.6689 89.6552 86.6918 89.2725 86.6982 89.0057C86.6804 88.6881 86.6571 88.4643 86.6283 88.3342C86.5665 88.2151 86.4991 88.0795 86.4262 87.9274C86.3688 87.7775 86.286 87.6397 86.1779 87.514C86.0719 87.373 85.9318 87.2507 85.7575 87.1471C85.5832 87.0436 85.3715 86.982 85.1222 86.9623C84.8576 86.9404 84.6393 86.9802 84.4673 87.0818C84.2954 87.1833 84.151 87.3125 84.0342 87.4691C83.9351 87.6125 83.8646 87.7758 83.8228 87.9588C83.781 88.1419 83.7657 88.3051 83.7768 88.4485C83.7945 88.5455 83.8266 88.6524 83.8729 88.7693C83.9215 88.8707 83.9922 88.9831 84.0849 89.1066C84.1776 89.23 84.3111 89.3435 84.4854 89.4471C84.1237 89.4429 83.8017 89.4365 83.5194 89.4278C83.2393 89.4038 82.9967 89.3929 82.7916 89.3952C82.5556 89.3932 82.3516 89.3878 82.1796 89.3791C82.0076 89.3704 81.8025 89.3727 81.5643 89.3861C81.3592 89.3884 81.1067 89.3919 80.8067 89.3965C80.5068 89.4011 80.1584 89.4146 79.7614 89.4369C79.8694 89.342 79.9686 89.2537 80.059 89.172C80.1515 89.0749 80.2342 88.9922 80.3069 88.9238C80.3818 88.8399 80.4557 88.7638 80.5284 88.6954ZM83.6103 91.9452C83.3302 91.9212 83.0425 91.9511 82.747 92.0351C82.4537 92.1037 82.1836 92.2306 81.9367 92.4161C81.6921 92.586 81.4728 92.799 81.2788 93.0549C81.1026 93.2977 80.9914 93.5811 80.9453 93.9053C80.8992 94.2296 80.9358 94.5262 81.055 94.7951C81.1919 95.0509 81.3806 95.2746 81.6211 95.4663C81.8771 95.6602 82.1573 95.7946 82.4616 95.8694C82.7815 95.9464 83.1024 95.9605 83.4243 95.9118C83.733 95.8454 84.0351 95.7151 84.3305 95.5208C84.6281 95.3111 84.8893 95.0805 85.1141 94.8289C85.3411 94.5619 85.5129 94.295 85.6296 94.028C85.7485 93.7457 85.7903 93.5075 85.7549 93.3134C85.6884 92.8944 85.45 92.577 85.0397 92.3611C84.6316 92.1298 84.1551 91.9912 83.6103 91.9452Z" fill="#242425"/>
<path d="M83.9773 84.258C82.9333 83.816 82.0898 83.2074 81.4469 82.4323C80.8186 81.6634 80.4591 80.7309 80.3683 79.6346C80.2922 78.5446 80.5499 77.3011 81.1414 75.9042C81.7578 74.4483 82.5016 73.3673 83.3728 72.6611C84.2441 71.9548 85.1818 71.5628 86.1858 71.485C87.2045 71.4134 88.2433 71.6017 89.3021 72.05C89.905 72.3053 90.4578 72.6173 90.9606 72.9863C91.4696 73.3405 91.8632 73.6806 92.1414 74.0064L90.8641 75.3645C90.5672 75.0827 90.2084 74.7834 89.7876 74.4665C89.3669 74.1497 88.9506 73.9041 88.5389 73.7298C87.7448 73.3936 87.0188 73.2856 86.3609 73.4059C85.7031 73.5262 85.1091 73.8643 84.5789 74.4202C84.0488 74.9761 83.5751 75.7467 83.158 76.7319C82.7595 77.6731 82.5452 78.5274 82.515 79.295C82.4849 80.0625 82.6482 80.7213 83.0049 81.2712C83.3617 81.8211 83.9151 82.2548 84.665 82.5723C85.3121 82.8462 85.9062 83.0198 86.4475 83.0929C87.0035 83.1722 87.5279 83.2034 88.0206 83.1866L87.2921 84.9071C86.8079 84.9449 86.3014 84.9125 85.7726 84.81C85.2522 84.7284 84.6538 84.5444 83.9773 84.258ZM88.3625 70.0915C88.3145 69.6723 88.2097 69.2031 88.0481 68.6838C87.8926 68.1498 87.7194 67.6169 87.5284 67.0852C87.3373 66.5534 87.1686 66.0918 87.0222 65.7003L87.1436 65.4136L88.4671 65.9739C88.7435 66.3858 89.013 66.8553 89.2753 67.3826C89.5376 67.9098 89.7685 68.4498 89.9681 69.0025C90.5332 68.7735 91.0963 68.5698 91.6575 68.3912C92.2187 68.2126 92.7433 68.0792 93.2315 67.9911L94.5991 68.5701L94.4777 68.8569C94.08 69.018 93.6164 69.2119 93.0869 69.4386C92.5721 69.6715 92.0615 69.9148 91.5552 70.1687C91.0698 70.414 90.6673 70.6685 90.3477 70.932L88.3625 70.0915Z" fill="#242425"/>
<path d="M89.9716 50.0311C90.1432 50.1091 90.3459 50.1637 90.5798 50.1949C90.8293 50.2261 91.0632 50.2417 91.2816 50.2417C91.5467 50.2417 91.8196 50.2339 92.1003 50.2183C92.381 50.2027 92.724 50.1715 93.1295 50.1247C93.457 50.0935 93.8624 50.0545 94.3459 50.0078C94.8293 49.961 95.3673 49.8986 95.9599 49.8206C95.7416 49.9298 95.5544 50.0467 95.3985 50.1715C95.2426 50.2962 95.11 50.421 95.0008 50.5458C94.8761 50.6861 94.7747 50.8265 94.6967 50.9668C94.5876 51.1539 94.4394 51.4814 94.2523 51.9493C94.0808 52.4015 93.9014 52.9083 93.7143 53.4697C93.5428 54.0311 93.3868 54.6003 93.2465 55.1773C93.1217 55.7543 93.0515 56.2455 93.0359 56.651C93.0203 56.9941 93.0047 57.3839 92.9892 57.8206C92.9736 58.1949 92.958 58.6549 92.9424 59.2007C92.9268 59.7465 92.9112 60.3703 92.8956 61.072C94.0184 60.2611 94.8839 59.614 95.4921 59.1305C96.1003 58.6315 96.5447 58.2494 96.8254 57.9843C97.1529 57.688 97.3478 57.4775 97.4102 57.3528C97.3946 57.2592 97.3556 57.1578 97.2932 57.0487C97.2153 56.9551 97.1061 56.8459 96.9657 56.7212C96.8254 56.5964 96.6149 56.4561 96.3342 56.3001C96.7396 56.3469 97.0905 56.3781 97.3868 56.3937C97.6987 56.4093 97.9638 56.4249 98.1821 56.4405C98.4316 56.4561 98.65 56.4561 98.8371 56.4405C99.0398 56.4405 99.2893 56.4327 99.5856 56.4171C100.1 56.4015 100.896 56.3781 101.972 56.3469C100.927 56.8927 100.1 57.3606 99.4921 57.7504C99.149 57.9687 98.8449 58.1715 98.5798 58.3586C98.3147 58.5613 98.0418 58.7719 97.7611 58.9902C97.5116 59.1773 97.2231 59.3956 96.8956 59.6451C96.5837 59.8947 96.2718 60.1598 95.9599 60.4405C96.5057 61.3294 96.9813 62.0623 97.3868 62.6393C97.8079 63.2163 98.1587 63.6841 98.4394 64.0428C98.7669 64.4638 99.0554 64.7991 99.3049 65.0486C99.5544 65.2826 99.8819 65.5477 100.287 65.844C100.63 66.1091 101.075 66.421 101.621 66.7796C102.182 67.1227 102.86 67.5204 103.656 67.9726C103.25 67.8946 102.86 67.8401 102.486 67.8089C102.112 67.7933 101.792 67.7933 101.527 67.8089C101.2 67.8245 100.903 67.8556 100.638 67.9024C100.358 67.9648 100.046 68.0428 99.7026 68.1363C99.4063 68.2143 99.0554 68.3157 98.65 68.4404C98.2601 68.5808 97.8312 68.7601 97.3634 68.9784C97.6597 68.7601 97.878 68.5496 98.0184 68.3469C98.1743 68.1597 98.2835 68.0038 98.3459 67.879C98.4082 67.7231 98.4316 67.5905 98.416 67.4814C98.3381 67.3254 98.1587 67.0057 97.878 66.5223C97.6129 66.1169 97.2231 65.5243 96.7084 64.7445C96.1938 63.9648 95.4609 62.9044 94.5096 61.5633C94.4628 61.5789 94.3849 61.6256 94.2757 61.7036C94.1821 61.7816 94.0418 61.8908 93.8546 62.0311C93.6675 62.1559 93.418 62.343 93.1061 62.5925L93.7377 66.6861C93.5973 66.7484 93.4414 66.803 93.2699 66.8498C93.1139 66.8966 92.9658 66.9356 92.8254 66.9668C92.6539 67.0135 92.4823 67.0447 92.3108 67.0603C92.1393 67.0759 91.9365 67.1071 91.7026 67.1539C91.4999 67.1851 91.2582 67.2241 90.9775 67.2709C90.6968 67.3332 90.3771 67.4034 90.0184 67.4814C90.2211 67.341 90.3849 67.1773 90.5096 66.9902C90.6344 66.8186 90.7357 66.6549 90.8137 66.4989C90.8917 66.3274 90.9619 66.148 91.0242 65.9609C91.0554 65.805 91.0866 65.3995 91.1178 64.7445C91.1646 64.0896 91.2036 63.3099 91.2348 62.4054C91.266 61.4853 91.2894 60.5028 91.3049 59.458C91.3361 58.4132 91.3517 57.4307 91.3517 56.5107C91.3517 55.575 91.3439 54.7641 91.3283 54.0779C91.3127 53.3762 91.2816 52.9239 91.2348 52.7212C91.1568 52.4717 91.0632 52.2066 90.9541 51.9259C90.8605 51.6764 90.728 51.3957 90.5564 51.0838C90.4005 50.7563 90.2055 50.4054 89.9716 50.0311Z" fill="#242425"/>
</svg>
